<?xml version="1.0" encoding="UTF-8" standalone="no"?>
<svg
   version="1.1"
   id="Layer_1"
   x="0px"
   y="0px"
   width="100%"
   viewBox="0 0 1024 1024"
   enable-background="new 0 0 1024 1024"
   xml:space="preserve"
   sodipodi:docname="LogoWiki.svg"
   inkscape:version="1.2.2 (b0a8486541, 2022-12-01)"
   inkscape:export-filename="LogoWiki.png"
   inkscape:export-xdpi="96"
   inkscape:export-ydpi="96"
   xmlns:inkscape="http://www.inkscape.org/namespaces/inkscape"
   xmlns:sodipodi="http://sodipodi.sourceforge.net/DTD/sodipodi-0.dtd"
   xmlns="http://www.w3.org/2000/svg"
   xmlns:svg="http://www.w3.org/2000/svg"><defs
   id="defs15" /><sodipodi:namedview
   id="namedview13"
   pagecolor="#ffffff"
   bordercolor="#000000"
   borderopacity="0.25"
   inkscape:showpageshadow="2"
   inkscape:pageopacity="0.0"
   inkscape:pagecheckerboard="0"
   inkscape:deskcolor="#d1d1d1"
   showgrid="false"
   inkscape:zoom="0.56004451"
   inkscape:cx="-289.26272"
   inkscape:cy="485.67568"
   inkscape:window-width="1920"
   inkscape:window-height="1008"
   inkscape:window-x="0"
   inkscape:window-y="40"
   inkscape:window-maximized="1"
   inkscape:current-layer="Layer_1" />
<path
   id="path227"
   style="display:inline;fill:#8caaee;fill-opacity:1;stroke-width:4.64849"
   d="M 513.51172,32.277344 A 494.82062,478.21115 0 0 0 18.691406,510.48828 494.82062,478.21115 0 0 0 513.51172,988.69922 494.82062,478.21115 0 0 0 1008.332,510.48828 494.82062,478.21115 0 0 0 513.51172,32.277344 Z" /><path
   id="rect9772"
   style="opacity:1;fill:#e5c890;fill-opacity:1;stroke-width:1.56286"
   d="m 408.14453,608.07458 v 368.45784 c 1.22166,0.29144 2.44706,0.56397 3.67492,0.82957 2.2876,0.47918 4.57928,0.95658 6.86141,1.46145 2.1287,0.48089 4.25638,0.94989 6.38074,1.44981 1.55883,0.36893 3.10642,0.79699 4.63628,1.27149 0.70013,0.20721 1.37947,0.49355 2.09719,0.63963 0.51703,0.10519 0.86415,0.12504 1.40718,0.1822 2.78687,0.18498 5.57917,0.12226 8.36936,0.0699 2.0478,-0.0389 4.09617,-0.0984 6.14427,-0.12027 0.17942,-6e-5 0.3594,4e-5 0.53883,0 2.51954,-7.2e-4 3.78743,1.26255 3.80285,2.53524 0.60089,0.0423 1.20154,0.0867 1.80257,0.12802 -0.18101,-0.0832 -0.26361,-0.16871 -0.55045,-0.2481 -0.05,-0.0139 -0.13576,-0.0296 -0.17843,-0.0387 -0.0423,-0.01 -0.0403,-0.01 0.0931,0.0119 0.49363,0.0478 0.98977,0.0645 1.48471,0.0931 0.94735,0.0335 1.89805,0.032 2.84534,0.0699 0.87573,0.0349 1.7468,0.0905 2.62052,0.15898 0.74264,0.045 1.48919,0.0812 2.23286,0.1046 0.64902,0.0298 1.29705,0.0748 1.94601,0.10459 0.58356,0.0139 1.16518,0.0199 1.74831,0.0465 0.633,0.0353 1.26552,0.0881 1.89172,0.18994 0.57923,0.0919 1.1596,0.18597 1.74443,0.23646 0.89607,0.0897 1.79479,0.15541 2.69417,0.20158 1.10181,0.0508 2.20415,0.0891 3.30667,0.12008 1.31604,0.0226 2.63009,0.01 3.94628,0.0198 1.38929,0.008 2.77917,0.008 4.16724,0.0736 0.50383,0.026 1.01084,0.0643 1.51571,0.0544 2.24382,-0.0397 3.49109,0.94338 3.74857,2.05843 0.32942,-0.01 0.65879,-0.0179 0.98852,-0.0159 0.43726,0 0.87689,-0.002 1.31413,-0.004 0.49505,-0.002 0.98977,-0.008 1.48471,-0.0199 0.55427,-0.0139 1.10873,-0.0365 1.66302,-0.0504 0.6857,-0.002 1.37038,0.0272 2.05454,0.0736 0.77701,0.0548 1.55584,0.11969 2.32591,0.24036 3.77864,-0.94066 7.55403,-1.89381 11.34651,-2.77945 5.7106,-1.43737 11.44164,-2.78743 17.1923,-4.05483 5.29399,-1.10115 10.61479,-2.0766 15.92468,-3.09733 5.5799,-1.0605 11.18746,-1.94498 16.84341,-2.4926 4.791,-0.63635 9.57664,-1.34672 14.3198,-2.27938 5.63893,-1.05963 11.2547,-2.22704 16.85118,-3.49272 5.58851,-1.22365 11.18769,-2.4067 16.73099,-3.82612 4.70959,-1.1477 9.39481,-2.40263 14.13373,-3.42683 3.59726,-0.73248 7.11719,-1.7459 10.60999,-2.87637 4.68929,-1.40887 9.40937,-2.71951 14.10659,-4.10133 4.35824,-1.26052 8.6643,-2.67553 12.96303,-4.12461 5.42719,-1.87491 10.87642,-3.7377 16.06812,-6.21014 11.40243,-5.41265 22.57519,-11.28086 33.58215,-17.45979 14.28447,-7.85367 28.53111,-15.77443 42.81598,-23.6273 0.89102,-0.4898 1.76083,-0.90872 2.6399,-1.35676 V 608.07458 Z m 56.91483,383.35524 c -0.0355,0.01 -0.0887,0.0159 -0.12405,0.0272 h 0.15898 c -0.0119,-0.01 -0.0242,-0.0179 -0.0349,-0.0272 z" /><path
   id="rect9769"
   style="display:inline;opacity:1;fill:#e5c890;fill-opacity:1;stroke-width:1.90883"
   d="m 115.88281,638.15625 v 86.45703 c 6.69372,2.91102 12.17171,9.15239 15.92188,15.08789 1.4078,2.2282 2.40628,4.56807 3.48828,6.94336 2.03762,5.23118 4.11477,10.44165 6.48242,15.5332 3.33011,7.46901 7.40348,14.56663 11.37695,21.70313 5.52593,9.80925 10.84596,19.73639 16.02149,29.73437 4.3214,8.58909 8.60543,17.19267 13.28125,25.59571 3.83537,6.82219 8.30904,13.24544 12.94336,19.54101 4.76231,6.41424 9.68084,12.71257 14.70703,18.92188 5.58885,6.89156 11.17113,13.79132 17.0293,20.45703 1.19951,1.38893 2.43936,2.74085 3.68554,4.08594 0.38311,-0.40374 0.93011,-0.63967 1.57617,-0.62305 0.83715,0.0215 1.83673,0.45878 2.83985,1.48047 2.54883,2.59601 5.04589,5.2419 7.64648,7.78711 0.25488,0.24962 0.51454,0.49317 0.77344,0.73828 1.61972,0.25879 3.23631,0.54557 4.81055,1.01172 2.64053,0.89323 5.03958,2.12898 7.40039,3.61133 2.84234,1.75106 5.69908,3.51395 8.29883,5.61523 0.68365,0.7192 1.48953,1.35305 1.71093,2.39844 0.003,0.0145 -9.8e-4,0.0247 0.002,0.0391 4.13184,1.86495 8.29008,3.67008 12.5,5.35352 1.77492,0.70974 2.60497,1.823 2.69921,2.83593 0.48637,0.21962 0.9769,0.42994 1.4629,0.65039 12.32111,5.71411 24.65552,11.46651 36.5996,17.94141 2.266,-1.09492 5.68937,-1.6632 10.58985,-1.5625 1.70714,0.0351 3.59206,0.15064 5.66406,0.35156 1.84069,0.17843 0.87675,0.0724 2.89453,0.32618 4.52192,0.72319 8.96742,1.88385 13.10352,3.90039 2.13902,1.0516 4.25157,2.15312 6.2832,3.40234 3.15098,1.59419 6.32484,3.1579 9.34766,4.99023 1.33708,0.79094 2.66304,1.59876 4.02734,2.3418 3.86657,0.41402 7.6126,1.39452 11.32617,2.51563 2.79654,0.98352 5.5269,2.13459 8.26953,3.25585 2.2333,0.96217 4.48046,1.87784 6.75977,2.72461 2.30172,0.81843 4.66624,1.43954 7.0293,2.05079 3.29645,0.57076 6.59571,1.10466 9.88086,1.75195 3.53305,0.75517 7.02762,1.65878 10.60156,2.20312 1.44773,0.18815 2.89718,0.36256 4.3457,0.54297 0.0911,-0.0139 0.18035,-0.0375 0.27149,-0.0508 1.60175,-0.21892 3.21129,-0.36629 4.82226,-0.49609 11.14127,-0.89795 20.49276,0.32442 28.14258,2.90625 0.16672,-0.0322 0.3333,-0.0635 0.5,-0.0957 V 638.15625 Z" /><path
   id="path615"
   style="opacity:1;fill:#c6d0f5;fill-opacity:1;stroke-width:1.94802"
   d="m 204.05433,490.29864 a 80.40011,99.57102 0 0 0 -80.40256,99.57189 80.40011,99.57102 0 0 0 11.72255,51.46834 c 0.77551,-0.68967 1.8458,-1.12598 2.86085,-1.27924 0.2847,-0.0431 0.56397,-0.0599 0.83733,-0.0582 0.82005,0.006 1.60138,0.18518 2.41507,0.39154 4.11203,1.07047 8.2468,2.04213 12.36216,3.1012 5.07079,1.31098 10.11407,2.73704 15.12613,4.2564 2.99782,0.88098 5.92937,1.95929 8.82679,3.12447 2.85758,1.20148 5.72128,2.39226 8.59809,3.547 2.47016,0.96821 4.94709,1.9102 7.39636,2.93063 2.07043,0.83073 4.03339,1.88329 5.93494,3.04305 1.96445,1.2595 3.93705,2.5051 5.94268,3.69818 2.3145,1.36505 4.60663,2.76374 6.86141,4.2254 1.63102,1.05433 3.21882,2.17483 4.76809,3.34543 0.95521,0.72146 1.85104,1.51571 2.81824,2.22123 0.88139,0.62713 1.82257,1.14768 2.79882,1.60874 1.13731,0.50631 2.30684,0.94554 3.46561,1.39942 1.28206,0.48613 2.47409,1.15645 3.61676,1.90725 0.66941,0.43758 1.28413,0.94566 1.87623,1.48081 0.44337,0.21855 0.88244,0.44173 1.32965,0.65127 -0.0252,0.49305 -0.0246,0.98992 -0.0349,1.4847 a 80.40011,99.57102 0 0 0 51.27844,-92.54766 80.40011,99.57102 0 0 0 -80.39871,-99.57189 z m 1.84909,188.9253 c 0.004,0.004 0.004,0.01 0.008,0.0159 0.0119,0.0119 0.24423,0.1987 0.18598,0.13953 -0.0584,-0.0591 -0.12842,-0.1038 -0.19392,-0.15501 z" /><path
   id="path612"
   style="opacity:1;fill:#c6d0f5;fill-opacity:1;stroke-width:2.13452"
   d="m 732.06908,550.21002 a 76.692793,143.16679 0 0 0 -61.43097,57.67462 c 0.5789,0.84059 1.28315,1.82009 1.69791,2.44996 3.30151,5.01369 6.13131,10.24076 8.87333,15.57191 2.30863,4.73689 4.2507,9.6487 5.69458,14.71907 0.48238,1.69397 0.89138,3.40224 1.27536,5.117 2.2646,4.45837 2.89895,9.37218 3.14772,14.3198 0.0159,1.03863 -0.0357,2.08627 -0.0581,3.13222 0.52481,3.89716 0.97,7.80519 1.39166,11.71479 0.80109,7.42773 -0.61637,13.08081 -3.17873,16.85892 1.18723,3.53811 2.27858,7.10859 3.24463,10.71466 1.59593,5.95729 2.14101,8.85265 3.42682,14.84314 0.11651,0.63306 0.21166,1.26986 0.32564,1.90336 1.91068,4.93564 3.80933,9.87587 5.62867,14.84701 4.31733,11.53659 8.74476,23.02915 13.23826,34.49701 0.11511,0.19351 0.15501,0.26006 0.27525,0.4613 6.59219,11.6766 12.21824,23.86601 17.37447,36.23368 0.28821,0.81566 0.64486,1.61968 0.97689,2.4267 12.7893,-8.62293 26.55003,3.30609 16.25417,23.22024 -0.30899,0.5977 -0.67131,1.16445 -1.00401,1.74831 a 76.692793,143.16679 0 0 0 59.5431,-139.29053 76.692793,143.16679 0 0 0 -76.69662,-143.16317 z" /><path
   id="path788"
   style="opacity:1;fill:#c6d0f5;fill-opacity:1;stroke-width:2.14923"
   d="m 822.10087,470.63315 a 102.33278,62.326315 0 0 0 -102.33194,62.32642 102.33278,62.326315 0 0 0 102.33194,62.32642 102.33278,62.326315 0 0 0 102.33584,-62.32642 102.33278,62.326315 0 0 0 -1.46919,-10.43941 l -0.004,-0.004 c -1.1361,-0.96516 -2.28973,-1.91082 -3.45395,-2.84148 -0.13437,0.20439 -0.28347,0.40849 -0.45743,0.60861 -3.82571,4.40095 -8.3222,-0.42208 -10.87359,-2.45383 -0.99163,-0.78966 -1.9856,-1.5827 -2.97715,-2.37242 -5.875,-4.6517 -11.71544,-9.34382 -17.56057,-14.03294 -0.97411,0.14588 -1.96,0.25264 -2.91513,0.40315 -1.77189,-0.15164 -3.56253,-0.15322 -5.3147,-0.45743 -9.86336,-1.71208 -18.65747,-7.25622 -26.69748,-12.90101 -0.85732,-0.64489 -1.69372,-1.31364 -2.51973,-1.99251 -0.6664,-0.32117 -1.32582,-0.65485 -1.97313,-1.01564 -0.7826,-0.57729 -1.44621,-1.20837 -1.50797,-2.02354 -1.87702,-1.72921 -3.67552,-3.54045 -5.4116,-5.41159 -4.17333,-1.37731 -8.27706,-2.95489 -12.19935,-4.96582 -1.67373,-0.89217 -2.89463,-1.51368 -4.34168,-2.39178 a 102.33278,62.326315 0 0 0 -2.6593,-0.0349 z m 9.90061,0.30236 c 1.62591,0.78015 3.28043,1.48621 4.95417,2.14758 -0.51952,-0.62187 -1.04082,-1.24233 -1.55061,-1.87236 a 102.33278,62.326315 0 0 0 -3.40356,-0.27522 z m 88.01602,44.22315 c 0.10281,0.35573 0.18835,0.71424 0.23647,1.0738 0.2083,0.16315 0.42436,0.31651 0.63187,0.48067 a 102.33278,62.326315 0 0 0 -0.86834,-1.55447 z" /><path
   id="path609"
   style="opacity:1;fill:#c6d0f5;fill-opacity:1;stroke-width:4.61215"
   d="m 489.92325,74.411791 a 293.75309,366.54608 0 0 0 -293.18,356.553089 c 0.6832,0.34302 1.38377,0.88616 2.10106,1.61649 1.08494,1.10465 2.10098,5.44851 2.51586,6.90793 0.39878,1.54497 0.74818,3.10363 1.05441,4.66731 1.18371,0.71067 2.13529,2.31549 2.1941,4.82238 0.008,0.36164 0.002,0.72061 -0.004,1.08154 0.85222,0.31653 1.67064,0.78805 2.42668,1.43044 0.43329,0.36816 0.78803,0.81923 1.18235,1.22885 1.78734,2.1899 2.61517,4.83069 3.03528,7.57857 0.28543,2.61007 0.17764,4.28688 -1.23272,6.56679 -1.07677,1.11474 -2.64528,2.57049 -4.36494,2.48872 -0.57062,-0.0272 -1.11975,-0.21108 -1.67078,-0.37603 -0.08,1.36264 -0.13993,2.7263 -0.2636,4.08584 -0.63318,2.03027 -0.66595,3.33087 -4.04319,3.5974 -0.51837,0.0409 -1.01251,-0.13457 -1.48082,-0.40317 a 293.75309,366.54608 0 0 0 191.71638,308.21308 c 2.01379,-6.28668 9.91413,-10.89097 22.06894,-8.27244 0.13179,-0.9772 0.25732,-1.95718 0.38764,-2.93452 3.4936,-5.59584 2.81647,-6.51807 7.97398,-9.1563 2.52907,-1.2937 4.36562,-1.18479 6.92343,-1.64365 2.03822,-0.30921 4.08992,-0.51082 6.14038,-0.71716 0.0766,-0.008 0.14072,10e-5 0.2171,-0.008 2.19944,-3.58864 4.39321,-7.18129 6.64431,-10.73792 3.49711,-5.45206 7.13327,-10.81912 10.99376,-16.02158 3.52692,-4.70404 7.13712,-9.36337 11.43958,-13.3972 4.06378,-3.91857 8.29856,-7.65927 12.83122,-11.03254 5.22346,-3.8492 10.46359,-7.68471 15.83164,-11.33101 5.5647,-3.71966 11.19786,-7.34028 16.97522,-10.72241 4.97044,-2.84991 10.03966,-5.52742 15.28118,-7.84992 5.04148,-2.27812 10.10139,-4.51904 15.16101,-6.75675 4.89204,-2.16739 9.77183,-4.37154 14.80436,-6.19854 4.21313,-1.48209 8.46877,-2.83477 12.75758,-4.08196 4.31583,-1.3086 8.64096,-2.601 12.86999,-4.17498 6.05962,-2.23588 12.05085,-4.6469 18.04513,-7.05137 5.05017,-2.02147 10.09113,-4.066 15.03696,-6.3342 3.22519,-1.4591 6.45973,-2.89496 9.68351,-4.3572 2.73599,-1.21778 5.47465,-2.43317 8.2647,-3.52374 2.98037,-1.16655 6.00447,-2.21489 9.11754,-2.97327 1.74527,-0.72718 3.58999,-1.21218 5.45812,-1.38779 0.83884,-0.20671 1.6787,-0.409 2.51585,-0.62413 3.15684,-0.77061 6.35007,-1.49735 9.62147,-1.46143 3.64084,0.1695 7.20613,0.78772 10.38128,2.70191 0.5663,0.37681 1.15121,0.72724 1.69791,1.13195 2.09703,1.55241 3.77533,3.58416 5.10924,5.81087 0.91127,1.64111 1.71744,3.32946 2.38404,5.08598 0.8142,2.02149 1.64135,4.04067 2.45384,6.06286 1.47144,3.4341 3.01397,6.8356 4.62467,10.20683 2.4656,5.09024 4.97475,10.16076 7.31884,15.30832 1.83853,4.34899 3.52261,8.7566 5.07821,13.21499 0.89557,2.54626 1.71826,5.11827 2.4732,7.71038 A 293.75309,366.54608 0 0 0 783.67698,440.95849 293.75309,366.54608 0 0 0 489.92325,74.411791 Z M 641.30073,715.17077 c -0.002,0.002 -0.006,0.004 -0.008,0.008 0.004,0.002 0.004,0.0879 0.008,0.0659 0.004,-0.0242 -0.002,-0.0494 0,-0.0736 z M 488.4618,787.2466 c -0.0466,0.001 -0.0728,0.0274 -0.0697,0.0854 0.18221,0.24512 0.53196,0.35906 0.92261,0.43417 -0.36433,-0.28797 -0.70831,-0.52253 -0.85284,-0.51946 z" /><ellipse
   style="opacity:1;fill:#e5c890;fill-opacity:1;stroke-width:2.21435"
   id="path964"
   ry="40.847904"
   rx="67.941193"
   cy="429.85831"
   cx="470.14429" /><path
   id="path2"
   style="display:inline;opacity:1;fill:#232634;fill-opacity:1;stroke-width:1.98477"
   d="M 524.66406,48.695312 C 485.38543,48.054475 446.72195,53.990467 408.58398,65.779297 330.63879,89.872929 270.25989,135.85492 227.06641,204.86133 c -27.02302,43.17222 -42.59171,89.90387 -44.61719,140.94922 -1.45398,36.64342 5.8772,71.57484 20.3164,105.17968 5.19172,12.08274 4.56983,13.59164 -6.75195,20.74219 -22.40295,14.14929 -46.14023,25.70267 -70.48828,36.08399 -27.485493,11.71899 -28.899356,15.85151 -16.62891,42.94726 6.41198,14.15901 5.47416,29.30529 6.13868,43.77539 -1.87259,0.82896 -2.5365,1.41601 -3.05274,1.30664 -6.11621,-1.29486 -12.216142,-2.67269 -18.310545,-4.06836 -14.633819,-3.35097 -22.417153,2.57571 -22.345703,17.57813 0.07457,15.67218 6.966717,29.48567 13.300781,43.2207 30.868907,66.9375 61.187517,134.31235 97.822267,198.25195 6.54621,11.42529 21.72266,32.9961 21.72266,32.9961 l 24.39648,17.8418 c 86.16958,58.02451 181.57632,83.72031 262.13281,86.45312 83.46441,2.83145 146.88791,-12.02933 180.89063,-23.96484 64.74469,-22.7265 121.8359,-54.19637 155.02343,-83.3418 -0.35239,-32.03572 -1.98076,-72.23035 1.06641,-104.10352 1.34612,-14.08039 3.87935,-28.0718 2.63281,-42.40625 -2.17058,-24.96013 -3.6653,-49.97839 -5.54297,-74.96484 -0.4796,-6.38155 1.54797,-9.16186 8.57618,-10.14648 49.64604,-6.95529 88.09179,-31.15603 114.98242,-74.11719 19.30739,-30.84613 18.23926,-41.56061 -19.04102,-57.42383 -29.71431,-12.64379 -60.58775,-22.98738 -87.62109,-41.48633 -5.01232,-3.42996 -7.47812,-6.80945 -6.94922,-12.82031 1.64799,-18.72694 3.26556,-37.46005 4.54492,-56.21484 2.9711,-43.55583 4.12689,-86.91225 -7.17578,-129.82618 C 816.78325,219.19418 785.91491,171.1851 741.26953,131.46094 684.24725,80.724085 617.07172,54.226415 541.53711,49.373047 535.90057,49.010874 530.2753,48.786861 524.66406,48.695312 Z m -29.75781,43.851563 c 1.2851,-0.111984 2.61602,-0.08614 3.96289,0.0078 1.79582,0.12527 3.62087,0.372744 5.4082,0.574218 3.08842,0.348169 5.40362,2.358877 6.83204,5.212891 1.42169,6.402933 2.40094,11.561603 -1.02735,15.781253 -4.55056,5.60092 -10.00742,10.11229 -17.9082,6.46093 -7.29349,-3.37065 -10.64191,-13.54262 -6.8418,-21.417964 2.27079,-4.706025 5.71892,-6.283188 9.57422,-6.619141 z m 54.32617,1.544922 c 9.34357,0.316115 18.58613,2.103652 27.66406,6.800783 h -14.06445 c -13.31989,-0.33344 -24.94653,0.29132 -35.55469,-5.544924 4.20482,-0.4905 8.40066,-0.910309 12.58008,-1.134765 3.13457,-0.168343 6.26048,-0.226466 9.375,-0.121094 z M 452.8418,98.625 c 6.62597,-0.37571 9.18646,5.21838 9.93359,12.07617 0.40642,10.59477 -4.3647,15.07383 -12.9082,15.31055 -6.17369,0.17099 -15.76505,-10.855 -15.28321,-18.33399 0.60788,-9.435744 9.70764,-6.99551 15.16211,-8.511714 1.11906,-0.311076 2.14914,-0.487343 3.09571,-0.541016 z m -42.93946,11.38086 c 2.9487,-0.26412 5.7249,0.89882 7.96094,5.41992 3.04432,6.15552 -0.69147,19.92325 -6.67383,22.89258 -6.78888,3.36973 -13.96283,5.95984 -20.96093,8.91016 -19.44718,8.19892 -39.49555,15.30984 -54.32422,31.56445 -1.87896,2.05976 -4.96701,3.5773 -7.74414,4.16211 -13.16999,2.77334 -26.42634,5.13455 -39.53321,7.62109 -1.51352,-2.16025 0.14817,-3.18952 0.99414,-4.44922 32.19934,-33.30374 69.77292,-56.19083 111.28516,-72.98242 2.92586,-1.18349 6.04741,-2.87455 8.99609,-3.13867 z M 625.75,212.85547 c 26.98799,-0.37683 52.74078,6.61972 76.72461,23.10742 31.26539,21.49323 44.55841,52.86419 51.53516,88.22461 12.24593,63.60269 5.14043,122.73703 -45.88672,175.55664 -2.08192,2.13923 -4.14932,4.23952 -2.29102,7.76563 12.48073,23.68181 16.05772,50.23335 24.07031,75.35742 5.01256,15.71724 12.21454,29.88868 24.27539,41.4375 15.01101,14.37378 21.6403,32.2755 24.28516,52.82226 4.1882,32.53774 6.99983,65.01868 5.99219,97.84571 -0.26882,8.76197 -2.82744,14.8488 -11.83594,16.76367 -9.33048,1.98356 -15.26209,-2.30199 -18.60156,-10.77539 -1.69414,-4.29844 -3.33048,-8.62811 -4.79883,-13.00782 -16.88069,-50.34877 -33.19793,-100.83034 -42.62109,-153.28515 -2.78489,-15.50248 -8.3358,-18.28123 -23.99805,-15.11133 -14.91434,3.01858 -14.82612,2.99994 -18.04688,-11.49609 -2.38282,-10.72506 -2.64393,-21.56245 -2.58203,-32.48047 0.0844,-14.86456 -6.37776,-20.64691 -20.83203,-18.71289 -30.69069,4.10629 -59.49159,15.0219 -88.51758,25.01758 -60.63591,20.8812 -114.66678,52.32051 -158.86132,99.56445 -10.09741,10.79411 -11.72585,10.32539 -21.81055,-0.24024 -21.80232,-22.84224 -45.46443,-43.2801 -74.29883,-56.95312 -7.0872,-3.36069 -4.77636,-9.21393 -3.87109,-14.61328 3.82253,-22.80008 10.56873,-44.86559 17.24218,-68.05078 -7.48104,8.93994 -13.35293,3.96963 -19.85351,-0.4961 -20.63871,-14.17828 -32.36367,-35.36296 -45.04102,-55.90039 -16.51007,-26.74654 -23.28804,-56.2721 -27.10156,-87.08789 -3.17696,-25.67197 -1.50519,-50.8961 4.61914,-75.59375 15.31071,-61.74308 50.84447,-86.12416 114.10352,-86.10156 35.25423,0.0126 63.18085,16.74028 87.79297,40.31641 13.15681,14.16155 24.01666,28.25104 31.19921,44.88086 0.78317,1.81352 1.8331,3.51715 2.82422,5.23437 9.04533,15.67189 16.95755,16.00119 26.25782,0.14258 10.21972,-17.42648 20.59453,-34.55679 34.43945,-49.50781 21.3102,-23.01253 47.92768,-36.36693 78.10742,-41.86719 9.25044,-1.6859 18.38486,-2.63025 27.38086,-2.75586 z m 151.26367,264.42187 c 4.12713,-0.44337 4.73153,2.72924 6.08008,4.63672 4.61872,6.53257 9.75071,12.6908 16.53711,16.86719 31.97771,19.67866 63.31942,40.53164 98.54297,54.35547 5.80323,2.27756 13.02118,2.33736 17.40429,10.82422 -25.38936,-2.57714 -46.0824,-13.79396 -67.25195,-23.59375 -23.42335,-12.99994 -46.96085,-23.36169 -62.42578,-44.82031 -3.94993,-5.4807 -8.05715,-10.99704 -8.88672,-18.26954 z m -549.66211,28.85938 c 3.38182,-0.47857 5.2592,2.3374 9.57227,9.66406 -13.30451,2.0715 -22.64331,11.65917 -34.05469,17.30469 -8.90529,4.40575 -17.90383,8.56042 -27.72461,10.24609 -3.75348,0.64398 -7.96089,0.72361 -12.94141,-3.89062 9.64517,-4.10897 18.46312,-7.86636 27.28126,-11.62305 10.65561,-6.29783 19.98721,-11.90664 29.30273,-17.54297 3.96382,-2.39824 6.53536,-3.87106 8.56445,-4.1582 z m -73.375,70.20312 c 13.21285,4.53224 26.34069,8.57581 39.12696,13.50586 43.35702,16.71752 84.3833,37.74683 121.39453,66.19727 17.70741,13.61174 32.14518,30.3494 46.75195,46.99023 5.22515,5.9526 10.84981,11.5506 16.16602,17.42578 4.53355,5.01015 8.2305,5.13386 12.89257,-0.35937 7.04482,-8.30079 14.39785,-16.29378 21.03125,-24.99023 28.17318,-36.93502 65.9816,-61.58329 107.15625,-81.22852 30.71202,-14.65318 62.70911,-26.29986 95.98243,-33.98633 11.88252,-2.74494 13.01166,-1.75586 14.38671,10.05859 0.41746,3.58747 1.12305,7.14167 1.69727,10.71094 0.49522,4.49104 0.75875,7.41757 1.08594,11.07032 -20.96203,6.41414 -42.11912,11.38196 -62.61719,18.73242 -44.00344,15.7794 -83.77765,38.96788 -121.19922,66.49414 -16.96571,12.47954 -29.34176,29.36839 -41.91601,45.98633 -4.9786,6.57949 -10.33227,12.8745 -15.43555,19.36132 -4.57234,5.81173 -9.37898,5.4908 -14.10156,0.44336 -7.44295,-7.95506 -15.20996,-15.68108 -21.94532,-24.21093 -49.21472,-62.32608 -114.35716,-99.78282 -189.49218,-121.50391 -9.36325,-2.70677 -14.55939,-6.64155 -13.29493,-17.01953 0.89898,-7.37733 -1.3484,-15.06912 2.33008,-23.67774 z m 508.67383,62.27149 c 4.14597,0.17191 6.24046,2.46656 7.98242,7.82812 20.90764,64.34997 42.08657,128.61339 63.28907,192.86719 3.2033,9.70771 7.14491,19.17198 10.37695,28.87109 4.31442,12.9464 3.22095,15.21255 -7.94336,22.86524 -21.33552,14.62431 -44.72076,25.57344 -67.37109,37.82812 -49.14249,26.58768 -100.71848,46.23746 -156.04493,55.84571 -25.43563,4.41726 -24.72355,5.05854 -35.58203,-16.98828 -23.35636,-47.42229 -41.35604,-97.18963 -64.08398,-144.875 -1.55207,-3.25627 -2.4114,-6.84288 -3.59375,-10.2754 -3.35869,-8.82593 -0.46817,-15.05612 3.50586,-20.9707 29.98561,-44.62791 67.3209,-80.84273 115.61718,-105.9043 41.06955,-21.31163 83.58372,-37.52744 128.95508,-46.58984 1.90085,-0.37962 3.51059,-0.55926 4.89258,-0.50195 z m -544.69141,1.05273 c 21.29837,5.93361 42.24511,11.16602 62.55274,18.73633 43.79597,16.3261 83.71255,39.27759 118.93359,70.06836 13.73165,12.00441 24.74479,26.60091 36.17774,40.71875 8.73634,10.78816 16.70996,22.23285 28.32031,30.30469 4.03853,2.80777 4.77953,7.16836 4.76953,11.41992 -0.0188,7.57311 2.67068,14.1108 6.04688,20.6582 14.56356,28.24232 24.76585,58.37905 37.70312,87.32617 7.96018,17.81088 16.45242,35.38322 24.75977,53.03907 -2.9659,4.69959 -6.6525,8.16054 -9.40625,7.29687 C 372.2704,961.81181 317.78001,942.28748 267.82422,911.16211 245.77289,897.42308 233.82555,877.34553 222.9707,855.99609 188.53167,788.26147 154.91001,720.11096 121,652.10742 c -1.74063,-3.49065 -3.60446,-7.01273 -3.04102,-12.44336 z" />

<path
   fill="#000000"
   opacity="1"
   stroke="none"
   d="m 546.11014,448.42295 c -20.25605,20.91519 -40.05742,41.28028 -64.55377,56.25335 -14.34737,8.76969 -19.08646,8.74545 -31.8734,-2.02953 -22.06811,-18.5959 -41.14431,-40.10922 -58.12485,-63.31664 -14.58238,-19.92977 -10.82041,-37.79211 9.83287,-51.40003 26.61964,-17.53912 56.43074,-20.98757 87.30934,-18.56959 15.89094,1.24435 31.24536,5.16185 45.46062,12.52606 30.3546,15.72492 34.89012,40.2693 11.94919,66.53638 M 439.67268,406.35277 c -6.43087,3.08084 -13.74632,4.68372 -18.85083,11.04858 11.43537,17.18926 23.94371,33.14545 39.58169,46.39504 4.37525,3.70707 9.80969,3.27872 13.1396,-1.28028 13.49905,-11.784 27.81185,-23.51413 39.09461,-35.75009 7.64579,-8.21292 5.27883,-15.01517 -4.82194,-19.50815 -22.05848,-9.81221 -44.28731,-8.1633 -68.14313,-0.9051 z"
   id="path6"
   sodipodi:nodetypes="csssssscccsccsc"
   style="fill:#232634;fill-opacity:1;stroke-width:1.98477" />
<path
   fill="#000000"
   opacity="1"
   stroke="none"
   d="m 606.73225,290.08702 c 36.53424,-10.50205 68.24137,4.20813 77.76195,35.4407 9.38598,30.79125 -9.46703,66.81918 -39.94798,76.34036 -29.76453,9.29725 -62.05399,-8.68858 -71.63005,-39.89929 -9.32674,-30.39887 4.20322,-59.68102 33.81608,-71.88177 m 20.17066,18.31867 c -2.2514,0.41617 -4.64478,0.47626 -6.73009,1.30862 -10.335,4.12502 -15.6761,13.34147 -13.32088,22.58415 2.2325,8.7609 11.7853,16.83432 19.10002,16.14224 10.31065,-0.97548 20.83161,-11.3169 20.96207,-20.60428 0.13883,-9.88927 -7.40339,-17.83143 -20.01112,-19.43073 z"
   id="path8"
   style="fill:#232634;fill-opacity:1;stroke-width:1.98477" />
<path
   fill="#000000"
   opacity="1"
   stroke="none"
   d="m 381.84341,346.63892 c -3.26056,16.75425 -9.30373,31.42791 -21.29594,42.55281 -15.54272,14.41853 -34.08876,18.29322 -54.26457,11.67306 -20.5479,-6.74233 -33.19554,-21.66063 -38.07012,-42.17534 -9.68351,-40.75283 18.33865,-74.9264 59.97424,-73.2824 25.4839,1.00626 55.42414,21.32635 53.65639,61.23187 m -41.09712,-26.76799 c -7.16723,-10.35293 -14.39473,-14.32901 -22.87258,-10.7742 -8.14666,3.41605 -16.27902,7.89323 -17.23306,18.37445 -0.81807,8.98816 3.87438,15.12164 11.28184,19.21038 8.35816,4.61358 16.31263,2.05794 22.78554,-3.64694 6.34117,-5.58871 10.88577,-12.58423 6.03826,-23.16369 z"
   id="path10"
   style="fill:#232634;fill-opacity:1;stroke-width:1.98477" />
</svg>
